<mxGraphModel dx="0" dy="0" grid="1" gridSize="10" guides="1" tooltips="1" connect="1" arrows="1" fold="1" page="0" pageScale="1" background="none" math="0" shadow="0">
  <root>
    <mxCell id="0" />
    <mxCell id="1" parent="0" />
    <mxCell id="node8" parent="1" vertex="1" value="&lt;p style=&quot;margin:0px;margin-top:4px;text-align:center;&quot;&gt;&lt;b&gt;binding&lt;/b&gt;&lt;/p&gt;&lt;hr size=&quot;1&quot;/&gt;&lt;p style=&quot;margin:0 0 0 4px;line-height:1.6;&quot;&gt; arguments: varchar(255)&lt;br/&gt; msg_matched: bigint&lt;br/&gt; exchange_name: varchar(255)&lt;br/&gt; exchange_virtual_host_broker_name: varchar(255)&lt;br/&gt; exchange_virtual_host_name: varchar(255)&lt;br/&gt; queue_name: varchar(255)&lt;br/&gt; queue_virtual_host_broker_name: varchar(255)&lt;br/&gt; queue_virtual_host_name: varchar(255)&lt;br/&gt; origin: varchar(255)&lt;/p&gt;&lt;hr size=&quot;1&quot;/&gt;&lt;p style=&quot;margin:0 0 0 4px;line-height:1.6;&quot;&gt; binding_key: varchar(255)&lt;/p&gt;" style="verticalAlign=top;align=left;overflow=fill;fontSize=14;fontFamily=Helvetica;html=1;rounded=0;shadow=0;comic=0;labelBackgroundColor=none;strokeWidth=1;">
      <mxGeometry x="-702" y="847" width="342" height="280" as="geometry" />
    </mxCell>
    <mxCell id="node6" parent="1" vertex="1" value="&lt;p style=&quot;margin:0px;margin-top:4px;text-align:center;&quot;&gt;&lt;b&gt;broker&lt;/b&gt;&lt;/p&gt;&lt;hr size=&quot;1&quot;/&gt;&lt;p style=&quot;margin:0 0 0 4px;line-height:1.6;&quot;&gt; abandoned: bigint&lt;br/&gt; abandoned_via_alt: bigint&lt;br/&gt; acquires: bigint&lt;br/&gt; byte_depth: bigint&lt;br/&gt; byte_persist_dequeues: bigint&lt;br/&gt; byte_persist_enqueues: bigint&lt;br/&gt; byte_total_dequeues: bigint&lt;br/&gt; byte_total_enqueues: bigint&lt;br/&gt; byte_txn_dequeues: bigint&lt;br/&gt; byte_txn_enqueues: bigint&lt;br/&gt; conn_backlog: bigint&lt;br/&gt; data_dir: text&lt;br/&gt; discards_lvq: bigint&lt;br/&gt; discards_no_route: bigint&lt;br/&gt; discards_overflow: bigint&lt;br/&gt; discards_purge: bigint&lt;br/&gt; discards_ring: bigint&lt;br/&gt; discards_subscriber: bigint&lt;br/&gt; discards_ttl: bigint&lt;br/&gt; max_conns: bigint&lt;br/&gt; mgmt_pub_interval: bigint&lt;br/&gt; mgmt_publish: bit(1)&lt;br/&gt; msg_depth: bigint&lt;br/&gt; msg_persist_dequeues: bigint&lt;br/&gt; msg_persist_enqueues: bigint&lt;br/&gt; msg_total_dequeues: bigint&lt;br/&gt; msg_total_enqueues: bigint&lt;br/&gt; msg_txn_dequeues: bigint&lt;br/&gt; msg_txn_enqueues: bigint&lt;br/&gt; port: bigint&lt;br/&gt; queue_count: bigint&lt;br/&gt; releases: bigint&lt;br/&gt; reroutes: bigint&lt;br/&gt; uptime: bigint&lt;br/&gt; version: varchar(255)&lt;br/&gt; worker_threads: bigint&lt;br/&gt; system_information_id: varchar(255)&lt;/p&gt;&lt;hr size=&quot;1&quot;/&gt;&lt;p style=&quot;margin:0 0 0 4px;line-height:1.6;&quot;&gt; name: varchar(255)&lt;/p&gt;" style="verticalAlign=top;align=left;overflow=fill;fontSize=14;fontFamily=Helvetica;html=1;rounded=0;shadow=0;comic=0;labelBackgroundColor=none;strokeWidth=1;">
      <mxGeometry x="716" y="-212" width="255" height="952" as="geometry" />
    </mxCell>
    <mxCell id="node1" parent="1" vertex="1" value="&lt;p style=&quot;margin:0px;margin-top:4px;text-align:center;&quot;&gt;&lt;b&gt;connection&lt;/b&gt;&lt;/p&gt;&lt;hr size=&quot;1&quot;/&gt;&lt;p style=&quot;margin:0 0 0 4px;line-height:1.6;&quot;&gt; incoming: bit(1)&lt;br/&gt; auth_identity: varchar(255)&lt;br/&gt; bytes_from_client: bigint&lt;br/&gt; bytes_to_client: bigint&lt;br/&gt; closing: bit(1)&lt;br/&gt; frames_from_client: bigint&lt;br/&gt; frames_to_client: bigint&lt;br/&gt; msgs_from_client: bigint&lt;br/&gt; msgs_to_client: bigint&lt;br/&gt; protocol: varchar(255)&lt;br/&gt; remote_parent_pid: bigint&lt;br/&gt; remote_pid: bigint&lt;br/&gt; remote_process_name: text&lt;br/&gt; remote_properties: varchar(255)&lt;br/&gt; sasl_mechanism: varchar(255)&lt;br/&gt; sasl_ssf: bigint&lt;/p&gt;&lt;hr size=&quot;1&quot;/&gt;&lt;p style=&quot;margin:0 0 0 4px;line-height:1.6;&quot;&gt; address: varchar(255)&lt;br/&gt; virtual_host_broker_name: varchar(255)&lt;br/&gt; virtual_host_name: varchar(255)&lt;/p&gt;" style="verticalAlign=top;align=left;overflow=fill;fontSize=14;fontFamily=Helvetica;html=1;rounded=0;shadow=0;comic=0;labelBackgroundColor=none;strokeWidth=1;">
      <mxGeometry x="1325" y="739" width="275" height="496" as="geometry" />
    </mxCell>
    <mxCell id="node7" parent="1" vertex="1" value="&lt;p style=&quot;margin:0px;margin-top:4px;text-align:center;&quot;&gt;&lt;b&gt;exchange&lt;/b&gt;&lt;/p&gt;&lt;hr size=&quot;1&quot;/&gt;&lt;p style=&quot;margin:0 0 0 4px;line-height:1.6;&quot;&gt; arguments: varchar(255)&lt;br/&gt; auto_delete: bit(1)&lt;br/&gt; binding_count: bigint&lt;br/&gt; byte_drops: bigint&lt;br/&gt; byte_receives: bigint&lt;br/&gt; byte_routes: bigint&lt;br/&gt; durable: bit(1)&lt;br/&gt; msg_drops: bigint&lt;br/&gt; msg_receives: bigint&lt;br/&gt; msg_routes: bigint&lt;br/&gt; type: varchar(255)&lt;br/&gt; exchange_name: varchar(255)&lt;br/&gt; exchange_virtual_host_broker_name: varchar(255)&lt;br/&gt; exchange_virtual_host_name: varchar(255)&lt;/p&gt;&lt;hr size=&quot;1&quot;/&gt;&lt;p style=&quot;margin:0 0 0 4px;line-height:1.6;&quot;&gt; name: varchar(255)&lt;br/&gt; virtual_host_broker_name: varchar(255)&lt;br/&gt; virtual_host_name: varchar(255)&lt;/p&gt;" style="verticalAlign=top;align=left;overflow=fill;fontSize=14;fontFamily=Helvetica;html=1;rounded=0;shadow=0;comic=0;labelBackgroundColor=none;strokeWidth=1;">
      <mxGeometry x="19" y="763" width="342" height="448" as="geometry" />
    </mxCell>
    <mxCell id="node5" parent="1" vertex="1" value="&lt;p style=&quot;margin:0px;margin-top:4px;text-align:center;&quot;&gt;&lt;b&gt;queue&lt;/b&gt;&lt;/p&gt;&lt;hr size=&quot;1&quot;/&gt;&lt;p style=&quot;margin:0 0 0 4px;line-height:1.6;&quot;&gt; durable: bit(1)&lt;br/&gt; acquires: bigint&lt;br/&gt; arguments: varchar(255)&lt;br/&gt; auto_delete: bit(1)&lt;br/&gt; binding_count: bigint&lt;br/&gt; byte_depth: bigint&lt;br/&gt; byte_persist_dequeues: bigint&lt;br/&gt; byte_persist_enqueues: bigint&lt;br/&gt; byte_total_dequeues: bigint&lt;br/&gt; byte_total_enqueues: bigint&lt;br/&gt; byte_txn_dequeues: bigint&lt;br/&gt; byte_txn_enqueues: bigint&lt;br/&gt; consumer_count: bigint&lt;br/&gt; creator: varchar(255)&lt;br/&gt; discards_lvq: bigint&lt;br/&gt; discards_overflow: bigint&lt;br/&gt; discards_purge: bigint&lt;br/&gt; discards_ring: bigint&lt;br/&gt; discards_subscriber: bigint&lt;br/&gt; discards_ttl: bigint&lt;br/&gt; exclusive: bit(1)&lt;br/&gt; flow_stopped: bit(1)&lt;br/&gt; flow_stopped_count: bigint&lt;br/&gt; msg_depth: bigint&lt;br/&gt; msg_persist_dequeues: bigint&lt;br/&gt; msg_persist_enqueues: bigint&lt;br/&gt; msg_total_dequeues: bigint&lt;br/&gt; msg_total_enqueues: bigint&lt;br/&gt; msg_txn_dequeues: bigint&lt;br/&gt; msg_txn_enqueues: bigint&lt;br/&gt; redirect_peer: varchar(255)&lt;br/&gt; redirect_source: bit(1)&lt;br/&gt; releases: bigint&lt;br/&gt; reroutes: bigint&lt;br/&gt; exchange_name: varchar(255)&lt;br/&gt; exchange_virtual_host_broker_name: varchar(255)&lt;br/&gt; exchange_virtual_host_name: varchar(255)&lt;/p&gt;&lt;hr size=&quot;1&quot;/&gt;&lt;p style=&quot;margin:0 0 0 4px;line-height:1.6;&quot;&gt; name: varchar(255)&lt;br/&gt; virtual_host_broker_name: varchar(255)&lt;br/&gt; virtual_host_name: varchar(255)&lt;/p&gt;" style="verticalAlign=top;align=left;overflow=fill;fontSize=14;fontFamily=Helvetica;html=1;rounded=0;shadow=0;comic=0;labelBackgroundColor=none;strokeWidth=1;">
      <mxGeometry x="19" y="1486" width="342" height="1000" as="geometry" />
    </mxCell>
    <mxCell id="node2" parent="1" vertex="1" value="&lt;p style=&quot;margin:0px;margin-top:4px;text-align:center;&quot;&gt;&lt;b&gt;session&lt;/b&gt;&lt;/p&gt;&lt;hr size=&quot;1&quot;/&gt;&lt;p style=&quot;margin:0 0 0 4px;line-height:1.6;&quot;&gt; full_name: varchar(255)&lt;br/&gt; attached: bit(1)&lt;br/&gt; channel_id: bigint&lt;br/&gt; expire_time: bigint&lt;br/&gt; txn_commits: bigint&lt;br/&gt; txn_count: bigint&lt;br/&gt; txn_rejects: bigint&lt;br/&gt; txn_starts: bigint&lt;br/&gt; unacked_messages: bigint&lt;br/&gt; connection_address: varchar(255)&lt;br/&gt; connection_virtual_host_broker_name: varchar(255)&lt;br/&gt; connection_virtual_host_name: varchar(255)&lt;/p&gt;&lt;hr size=&quot;1&quot;/&gt;&lt;p style=&quot;margin:0 0 0 4px;line-height:1.6;&quot;&gt; name: varchar(255)&lt;br/&gt; virtual_host_broker_name: varchar(255)&lt;br/&gt; virtual_host_name: varchar(255)&lt;/p&gt;" style="verticalAlign=top;align=left;overflow=fill;fontSize=14;fontFamily=Helvetica;html=1;rounded=0;shadow=0;comic=0;labelBackgroundColor=none;strokeWidth=1;">
      <mxGeometry x="668" y="1475" width="351" height="400" as="geometry" />
    </mxCell>
    <mxCell id="node3" parent="1" vertex="1" value="&lt;p style=&quot;margin:0px;margin-top:4px;text-align:center;&quot;&gt;&lt;b&gt;subscription&lt;/b&gt;&lt;/p&gt;&lt;hr size=&quot;1&quot;/&gt;&lt;p style=&quot;margin:0 0 0 4px;line-height:1.6;&quot;&gt; browsing: bit(1)&lt;br/&gt; queue_name: varchar(255)&lt;br/&gt; queue_virtual_host_broker_name: varchar(255)&lt;br/&gt; queue_virtual_host_name: varchar(255)&lt;br/&gt; session_name: varchar(255)&lt;br/&gt; session_virtual_host_broker_name: varchar(255)&lt;br/&gt; session_virtual_host_name: varchar(255)&lt;br/&gt; acknowledged: bit(1)&lt;br/&gt; arguments: varchar(255)&lt;br/&gt; credit_mode: varchar(255)&lt;br/&gt; delivered: bigint&lt;br/&gt; exclusive: bit(1)&lt;/p&gt;&lt;hr size=&quot;1&quot;/&gt;&lt;p style=&quot;margin:0 0 0 4px;line-height:1.6;&quot;&gt; name: varchar(255)&lt;/p&gt;" style="verticalAlign=top;align=left;overflow=fill;fontSize=14;fontFamily=Helvetica;html=1;rounded=0;shadow=0;comic=0;labelBackgroundColor=none;strokeWidth=1;">
      <mxGeometry x="679" y="2258" width="329" height="352" as="geometry" />
    </mxCell>
    <mxCell id="node4" parent="1" vertex="1" value="&lt;p style=&quot;margin:0px;margin-top:4px;text-align:center;&quot;&gt;&lt;b&gt;system_information&lt;/b&gt;&lt;/p&gt;&lt;hr size=&quot;1&quot;/&gt;&lt;p style=&quot;margin:0 0 0 4px;line-height:1.6;&quot;&gt; machine: varchar(255)&lt;br/&gt; node_name: varchar(255)&lt;br/&gt; os_name: varchar(255)&lt;br/&gt; release: varchar(255)&lt;br/&gt; version: varchar(255)&lt;/p&gt;&lt;hr size=&quot;1&quot;/&gt;&lt;p style=&quot;margin:0 0 0 4px;line-height:1.6;&quot;&gt; system_information_id: varchar(255)&lt;/p&gt;" style="verticalAlign=top;align=left;overflow=fill;fontSize=14;fontFamily=Helvetica;html=1;rounded=0;shadow=0;comic=0;labelBackgroundColor=none;strokeWidth=1;">
      <mxGeometry x="1380" y="172" width="255" height="184" as="geometry" />
    </mxCell>
    <mxCell id="node0" parent="1" vertex="1" value="&lt;p style=&quot;margin:0px;margin-top:4px;text-align:center;&quot;&gt;&lt;b&gt;virtual_host&lt;/b&gt;&lt;/p&gt;&lt;hr size=&quot;1&quot;/&gt;&lt;p style=&quot;margin:0 0 0 4px;line-height:1.6;&quot;&gt; federation_tag: varchar(255)&lt;/p&gt;&lt;hr size=&quot;1&quot;/&gt;&lt;p style=&quot;margin:0 0 0 4px;line-height:1.6;&quot;&gt; name: varchar(255)&lt;br/&gt; broker_name: varchar(255)&lt;/p&gt;" style="verticalAlign=top;align=left;overflow=fill;fontSize=14;fontFamily=Helvetica;html=1;rounded=0;shadow=0;comic=0;labelBackgroundColor=none;strokeWidth=1;">
      <mxGeometry x="740" y="931" width="207" height="121" as="geometry" />
    </mxCell>
    <mxCell id="edge4" edge="1" value="" parent="1" source="node8" target="node7" style="html=1;rounded=1;;dashed=0;startArrow=none;endArrow=block;endSize=12;strokeColor=#595959;exitX=1.000;exitY=0.500;exitDx=0;exitDy=0;entryX=0.000;entryY=0.500;entryDx=0;entryDy=0;">
      <mxGeometry width="50" height="50" relative="1" as="geometry">
        <Array as="points" />
      </mxGeometry>
    </mxCell>
    <mxCell id="label26" parent="edge4" vertex="1" connectable="0" value="exchange_name, exchange_virtual_host_broker_name, exchange_virtual_host_name:name, virtual_host_broker_name, virtual_host_name" style="edgeLabel;resizable=0;html=1;align=left;verticalAlign=top;strokeColor=default;">
      <mxGeometry x="-648" y="1304" as="geometry" />
    </mxCell>
    <mxCell id="edge10" edge="1" value="" parent="1" source="node8" target="node5" style="html=1;rounded=1;;dashed=0;startArrow=none;endArrow=block;endSize=12;strokeColor=#595959;exitX=0.795;exitY=1.000;exitDx=0;exitDy=0;entryX=0.000;entryY=0.263;entryDx=0;entryDy=0;">
      <mxGeometry width="50" height="50" relative="1" as="geometry">
        <Array as="points" />
      </mxGeometry>
    </mxCell>
    <mxCell id="label62" parent="edge10" vertex="1" connectable="0" value="queue_name, queue_virtual_host_broker_name, queue_virtual_host_name:name, virtual_host_broker_name, virtual_host_name" style="edgeLabel;resizable=0;html=1;align=left;verticalAlign=top;strokeColor=default;">
      <mxGeometry x="-699" y="1742" as="geometry" />
    </mxCell>
    <mxCell id="edge1" edge="1" value="" parent="1" source="node6" target="node4" style="html=1;rounded=1;;dashed=0;startArrow=none;endArrow=block;endSize=12;strokeColor=#595959;exitX=1.000;exitY=0.500;exitDx=0;exitDy=0;entryX=0.000;entryY=0.500;entryDx=0;entryDy=0;">
      <mxGeometry width="50" height="50" relative="1" as="geometry">
        <Array as="points" />
      </mxGeometry>
    </mxCell>
    <mxCell id="label8" parent="edge1" vertex="1" connectable="0" value="system_information_id" style="edgeLabel;resizable=0;html=1;align=left;verticalAlign=top;strokeColor=default;">
      <mxGeometry x="1060" y="244" as="geometry" />
    </mxCell>
    <mxCell id="edge11" edge="1" value="" parent="1" source="node1" target="node0" style="html=1;rounded=1;;dashed=0;startArrow=none;endArrow=block;endSize=12;strokeColor=#595959;exitX=0.000;exitY=0.500;exitDx=0;exitDy=0;entryX=1.000;entryY=0.500;entryDx=0;entryDy=0;">
      <mxGeometry width="50" height="50" relative="1" as="geometry">
        <Array as="points" />
      </mxGeometry>
    </mxCell>
    <mxCell id="label68" parent="edge11" vertex="1" connectable="0" value="virtual_host_broker_name, virtual_host_name:broker_name, name" style="edgeLabel;resizable=0;html=1;align=left;verticalAlign=top;strokeColor=default;">
      <mxGeometry x="950" y="987" as="geometry" />
    </mxCell>
    <mxCell id="edge2" edge="1" value="" parent="1" source="node7" target="node7" style="html=1;rounded=1;;dashed=0;startArrow=none;endArrow=block;endSize=12;strokeColor=#595959;exitX=0.750;exitY=0.000;exitDx=0;exitDy=0;entryX=1.000;entryY=0.250;entryDx=0;entryDy=0;">
      <mxGeometry width="50" height="50" relative="1" as="geometry">
        <Array as="points">
          <mxPoint x="276" y="748" />
          <mxPoint x="282" y="742" />
          <mxPoint x="376" y="742" />
          <mxPoint x="382" y="748" />
          <mxPoint x="382" y="869" />
          <mxPoint x="376" y="875" />
        </Array>
      </mxGeometry>
    </mxCell>
    <mxCell id="label14" parent="edge2" vertex="1" connectable="0" value="exchange_name, exchange_virtual_host_broker_name, exchange_virtual_host_name:name, virtual_host_broker_name, virtual_host_name" style="edgeLabel;resizable=0;html=1;align=left;verticalAlign=top;strokeColor=default;">
      <mxGeometry x="-55" y="349" as="geometry" />
    </mxCell>
    <mxCell id="edge12" edge="1" value="" parent="1" source="node7" target="node0" style="html=1;rounded=1;;dashed=0;startArrow=none;endArrow=block;endSize=12;strokeColor=#595959;exitX=1.000;exitY=0.500;exitDx=0;exitDy=0;entryX=0.000;entryY=0.500;entryDx=0;entryDy=0;">
      <mxGeometry width="50" height="50" relative="1" as="geometry">
        <Array as="points" />
      </mxGeometry>
    </mxCell>
    <mxCell id="label74" parent="edge12" vertex="1" connectable="0" value="virtual_host_broker_name, virtual_host_name:broker_name, name" style="edgeLabel;resizable=0;html=1;align=left;verticalAlign=top;strokeColor=default;">
      <mxGeometry x="365" y="987" as="geometry" />
    </mxCell>
    <mxCell id="edge8" edge="1" value="" parent="1" source="node5" target="node7" style="html=1;rounded=1;;dashed=0;startArrow=none;endArrow=block;endSize=12;strokeColor=#595959;exitX=0.500;exitY=0.000;exitDx=0;exitDy=0;entryX=0.500;entryY=1.000;entryDx=0;entryDy=0;">
      <mxGeometry width="50" height="50" relative="1" as="geometry">
        <Array as="points" />
      </mxGeometry>
    </mxCell>
    <mxCell id="label50" parent="edge8" vertex="1" connectable="0" value="exchange_name, exchange_virtual_host_broker_name, exchange_virtual_host_name:name, virtual_host_broker_name, virtual_host_name" style="edgeLabel;resizable=0;html=1;align=left;verticalAlign=top;strokeColor=default;">
      <mxGeometry x="-577" y="1339" as="geometry" />
    </mxCell>
    <mxCell id="edge5" edge="1" value="" parent="1" source="node5" target="node0" style="html=1;rounded=1;;dashed=0;startArrow=none;endArrow=block;endSize=12;strokeColor=#595959;exitX=1.000;exitY=0.128;exitDx=0;exitDy=0;entryX=0.292;entryY=1.000;entryDx=0;entryDy=0;">
      <mxGeometry width="50" height="50" relative="1" as="geometry">
        <Array as="points" />
      </mxGeometry>
    </mxCell>
    <mxCell id="label32" parent="edge5" vertex="1" connectable="0" value="virtual_host_broker_name, virtual_host_name:broker_name, name" style="edgeLabel;resizable=0;html=1;align=left;verticalAlign=top;strokeColor=default;">
      <mxGeometry x="92" y="1461" as="geometry" />
    </mxCell>
    <mxCell id="edge3" edge="1" value="" parent="1" source="node2" target="node1" style="html=1;rounded=1;;dashed=0;startArrow=none;endArrow=block;endSize=12;strokeColor=#595959;exitX=1.000;exitY=0.013;exitDx=0;exitDy=0;entryX=0.000;entryY=0.808;entryDx=0;entryDy=0;">
      <mxGeometry width="50" height="50" relative="1" as="geometry">
        <Array as="points" />
      </mxGeometry>
    </mxCell>
    <mxCell id="label20" parent="edge3" vertex="1" connectable="0" value="connection_address, connection_virtual_host_broker_name, connection_virtual_host_name:address, virtual_host_broker_name, virtual_host_name" style="edgeLabel;resizable=0;html=1;align=left;verticalAlign=top;strokeColor=default;">
      <mxGeometry x="563" y="1335" as="geometry" />
    </mxCell>
    <mxCell id="edge0" edge="1" value="" parent="1" source="node2" target="node0" style="html=1;rounded=1;;dashed=0;startArrow=none;endArrow=block;endSize=12;strokeColor=#595959;exitX=0.500;exitY=0.000;exitDx=0;exitDy=0;entryX=0.500;entryY=1.000;entryDx=0;entryDy=0;">
      <mxGeometry width="50" height="50" relative="1" as="geometry">
        <Array as="points" />
      </mxGeometry>
    </mxCell>
    <mxCell id="label2" parent="edge0" vertex="1" connectable="0" value="virtual_host_broker_name, virtual_host_name:broker_name, name" style="edgeLabel;resizable=0;html=1;align=left;verticalAlign=top;strokeColor=default;">
      <mxGeometry x="472" y="1311" as="geometry" />
    </mxCell>
    <mxCell id="edge6" edge="1" value="" parent="1" source="node3" target="node5" style="html=1;rounded=1;;dashed=0;startArrow=none;endArrow=block;endSize=12;strokeColor=#595959;exitX=0.000;exitY=0.230;exitDx=0;exitDy=0;entryX=1.000;entryY=0.650;entryDx=0;entryDy=0;">
      <mxGeometry width="50" height="50" relative="1" as="geometry">
        <Array as="points">
          <mxPoint x="457" y="2211" />
          <mxPoint x="442" y="2202" />
          <mxPoint x="426" y="2193" />
        </Array>
      </mxGeometry>
    </mxCell>
    <mxCell id="label38" parent="edge6" vertex="1" connectable="0" value="queue_name, queue_virtual_host_broker_name, queue_virtual_host_name:name, virtual_host_broker_name, virtual_host_name" style="edgeLabel;resizable=0;html=1;align=left;verticalAlign=top;strokeColor=default;">
      <mxGeometry x="-123" y="2337" as="geometry" />
    </mxCell>
    <mxCell id="edge9" edge="1" value="" parent="1" source="node3" target="node2" style="html=1;rounded=1;;dashed=0;startArrow=none;endArrow=block;endSize=12;strokeColor=#595959;exitX=0.500;exitY=0.000;exitDx=0;exitDy=0;entryX=0.500;entryY=1.000;entryDx=0;entryDy=0;">
      <mxGeometry width="50" height="50" relative="1" as="geometry">
        <Array as="points" />
      </mxGeometry>
    </mxCell>
    <mxCell id="label56" parent="edge9" vertex="1" connectable="0" value="session_name, session_virtual_host_broker_name, session_virtual_host_name:name, virtual_host_broker_name, virtual_host_name" style="edgeLabel;resizable=0;html=1;align=left;verticalAlign=top;strokeColor=default;">
      <mxGeometry x="100" y="2045" as="geometry" />
    </mxCell>
    <mxCell id="edge7" edge="1" value="" parent="1" source="node0" target="node6" style="html=1;rounded=1;;dashed=0;startArrow=none;endArrow=block;endSize=12;strokeColor=#595959;exitX=0.500;exitY=0.000;exitDx=0;exitDy=0;entryX=0.499;entryY=1.000;entryDx=0;entryDy=0;">
      <mxGeometry width="50" height="50" relative="1" as="geometry">
        <Array as="points" />
      </mxGeometry>
    </mxCell>
    <mxCell id="label44" parent="edge7" vertex="1" connectable="0" value="broker_name:name" style="edgeLabel;resizable=0;html=1;align=left;verticalAlign=top;strokeColor=default;">
      <mxGeometry x="730" y="805" as="geometry" />
    </mxCell>
  </root>
</mxGraphModel>